<svg xmlns="http://www.w3.org/2000/svg" id="Capa_2" data-name="Capa 2" viewBox="0 0 185.29 129.72"><defs><style>.cls-1{fill:#f8b133}</style></defs><g id="Design"><path d="M35.96 44.2c-1.19.25-2.04.33-3.14.59-1.27.29-1.72.53-2.96.81-.72-4.27-1.01-7.47-1.73-11.74-.4 3.56-.5 5.68-.97 9.4-1.02.04-1.44-.02-2.45.04-.92.05-1.6.21-2.55.24-1.79-2.57-2.8-4.36-4.58-6.78.16.86.35 1.75.57 2.73.81 3.65 1.33 5.77 2.2 9.49-1.17.29-1.96.34-3.11.62-1.19.28-1.7.53-2.93.82-.7-3.94-.85-6.14-1.55-10.01-.85-4.64-1.68-7.37-2.9-11.78 1.15-.47 1.92-.64 3.07-1.09 1.27-.5 1.78-.82 3.12-1.4 2.27 3.18 3.29 5.19 5.76 8.19.61.74 1.14 1.38 1.62 1.97.1-.59.19-1.24.33-1.96.83-4.94.87-7.96 1.41-13.27 1.16-.44 1.95-.52 3.11-.96 1.29-.49 1.8-.78 3.15-1.37.84 5.78 1.03 9.05 2.2 14.49.86 3.98 1.45 6.95 2.36 10.98ZM51.03 37.96c-.61.27-2.43.66-2.96.78-.62.15-2.61.8-3.12 1-.07-.42-.11-.84-.18-1.26-2.91 3.87-8.28 4.53-8.64-1.56-.2-3.49 3.85-10.74 7.39-10.58-1.91-4.31-6.25 3.11-7.06 6.16-.47-.34-.91-2.37-1.2-3.95-.23-1.22-.18-2.64-.22-2.67 1.15-1.3 5.6-4.2 8.74-3.68 4.43.73 5.98 6.16 7.25 15.75ZM39.26 22.41c-.33-.11-.59-.23-.86-.41-.29-.2-.48-.4-.69-.59.78-1.88 1.18-3.74 2.11-5.79.45.17 1.01.42 1.38.75.56.41.93.79 1.25 1.06-1.06 1.86-2.26 3.32-3.18 4.98Zm5.17 11.46c-.06-.74-.08-1.5-.13-2.19-.07-.88-.35-2.42-1.04-2.04-1.23.69-1.5 4.14-1.08 6.37.48 2.48 1.83 1.04 2.25-2.13ZM64.96 29.72c.19 3.49-3.6 5.92-12.25 7.2-.07-.84-.48-2.68-.6-3.38-.12-.74-.86-3.25-.91-3.8 3.43-.68 8.85.37 8.81-1.04-.04-1.74-9.5-.49-9.89-4.73-.32-3.56 3.62-7.03 12.31-8.56.04 1.09.4 2.83.51 3.51.13.8.75 3.06.87 3.79-3.48 1.48-9.06.45-8.57 1.95.34 1.04 4.51.38 7.27 1.25 1.72.6 2.34 1.7 2.45 3.82ZM89.02 27.1c-1.19.26-2.01.33-3.21.56-1.33.25-1.93.63-3.31 1-.05-.51-.1-1.02-.15-1.57-.93 1.47-2.21 2.72-3.77 3.06-4.5.98-6.6-5.58-6.65-9.98-.08-6.56 3.07-10.57 8.06-9.58-1.12-4.16-2.18-6.84-3.05-8.83 1.2-.25 2.58-.49 3.74-.76 1.19-.27 2.53-.75 3.8-.99.7 4.75.83 7.44 1.53 12.24.84 5.77 1.75 9.17 3.01 14.86Zm-7.41-7.79c-.1-.74-.17-1.53-.31-2.31-.2-1.1-.7-2.6-1.56-2.65-.65-.03-2.27 1.53-1.67 6.04.3 2.26 1.45 3.02 2.15 2.83 1.84-.51 1.44-3.63 1.4-3.91ZM99.76 16.41c-1.01.94-2.62 1.85-4.34 2.45.68 1.24 1.77 1.82 2.61 1.75 2.15-.19 3.35-2.86 3.56-4.32.52.28 1.11 1.16 1.55 2.43.32.94.83 2.81.92 3.59 0 0-1.82 2.33-6.2 3.2-5.71 1.13-9.12-4.65-9.22-10.2-.1-5.29 2.79-8.34 5.13-9.52 3.4-1.7 8.51-1.26 8.84 4.67.13 2.31-1.2 4.46-2.85 5.95Zm-3.54-4.75c-1 .97-1.67 3.5-1.4 5.15.75-.67 2.03-2.03 2.62-3.77.52-1.53-.4-2.17-1.22-1.38ZM2.06 61.32c1.49-.95 4.12-1.03 6.12-1.98 2.32-1.1 4.33-2.03 6.42-2.74.33 4.71.9 11.87 2.16 17.6 1.85 8.43 2.28 12.87 4.19 22.03-2.75.09-3.75.04-6.39.22-2.32.16-3.76.49-6.08.59-.65-7.66-1.11-9.28-2.07-17.25-.37-3.05-1.08-6.39-1.66-8.75-.12-.29-2.68 2.58-2.8 2.29-.71-1.61-2.07-6.85-1.92-8.49.05-.51 1.39-3.12 2.04-3.54ZM40.82 94.82c-9.08 6.46-17.03-7.6-19.16-14.91-2.36-8.09-.15-20.45 6.35-26.3 9.46-8.52 17.39 5.76 19.12 13.22 2.16 9.29 1.84 22.19-6.31 27.98Zm-3.32-7.25c1.91-.22 1.57-9.66.37-16.24-1.29-7.09-4.31-11.15-5.54-10.86-2.08.48-2.6 9.31-.63 16.08 1.72 5.92 3.97 10.48 5.8 11.02ZM70.97 91c-9.51 8.16-17.71-8.45-19.46-15.84-2.38-10.05-1.49-22.02 6.22-29.73 9.92-9.9 17.83 7.6 19.43 14.84C79.4 70.41 79.18 83.96 70.97 91Zm-3.39-7.84c1.92-.33 1.52-10.7.26-17.95-1.35-7.81-4.44-12.33-5.67-12.03-2.08.5-2.56 10.39-.52 17.92 1.78 6.59 4.08 11.54 5.93 12.06ZM86.54 74.25c2.58-.53 5.32 2.04 5.84 5.26.53 3.3-1.07 6.5-3.66 7-2.52.48-4.75-1.96-5.28-5.23-.51-3.18.59-6.51 3.1-7.03ZM112.75 82.93c-9.83 9.59-17.98-9.04-19.56-16.2-2.33-10.58-1.94-23.93 6.12-31.89 9.87-9.74 17.98 9.05 19.53 16.17 2.31 10.56 1.99 24.03-6.1 31.91Zm-3.41-8.07c1.92-.42 1.48-11.25.2-18.84-1.38-8.18-4.5-13.03-5.73-12.76-2.08.45-2.53 10.98-.45 18.97 1.82 6.99 4.13 12.15 5.99 12.63ZM142.71 75.93c-9.89 9.82-17.86-8.67-19.4-15.76-2.26-10.38-2.08-24.11 6.1-31.51 9.65-8.73 17.76 9.28 19.39 16.47 2.32 10.29 1.77 22.99-6.09 30.8Zm-3.36-7.81c1.9-.43 1.48-10.96.22-18.37-1.36-7.99-4.45-12.84-5.68-12.62-2.06.36-2.53 10.74-.47 18.62 1.8 6.89 4.09 11.93 5.93 12.37ZM46.76 115.98c-1.02.64-2.64 1.12-4.37 1.26.67 1.21 1.76 1.95 2.61 2.06 2.16.28 3.38-1.84 3.6-3.1.52.34 1.11 1.22 1.54 2.42.32.89.81 2.65.89 3.35 0 0-1.85 1.76-6.26 1.53-5.75-.3-9.11-6.1-9.15-10.78-.04-4.46 2.87-6.46 5.23-7.05 3.41-.87 8.52.22 8.81 5.54.11 2.07-1.24 3.77-2.9 4.77Zm-3.51-4.79c-1 .65-1.7 2.69-1.45 4.17.76-.42 2.06-1.34 2.66-2.74.53-1.23-.39-1.96-1.21-1.42ZM68.22 122.99c-.62.13-2.47-.04-2.97-.05-.63 0-2.7.15-3.2.18-.93-5.44-.35-10.5-1.99-12.06-1.3-1.23-2.28-.35-2.88 1.06l.06.36c.51 4.11 1.33 6.39 2.28 10.75-1.4.02-1.91 0-3.27.07-1.19.07-1.93.25-3.1.26-.34-3.82-.45-6.21-1.21-10.03-.53-2.68-1.31-5.45-1.9-8.16.89-.3 2.35-.08 3.49-.39 1.21-.32 2.23-.55 3.32-.69-.03.81-.05 1.5-.05 2.14.94-1.81 2.46-3.06 4.81-2.49 4.75 1.17 5.48 10.15 6.6 19.05ZM90.68 112.02c.08 5.75-2.26 8.36-4.73 8.7-1.46.2-2.59-.05-3.75-.54.61 2.96 1.35 5.86 1.98 8.7-1.37.16-2.04.01-3.35.24-1.18.2-1.97.41-3.15.6-.6-5.78-.87-9.32-1.85-14.94-.69-3.97-1.57-8-2.36-11.99 1.01-.27 2.6-.32 3.78-.58 1.14-.25 2.85-.68 3.69-.94-.05.52-.1 1.09-.14 1.69.87-.95 1.93-1.64 3.15-1.78 4.47-.52 6.66 6.39 6.72 10.85Zm-8.36-4.14c-1.03.15-1.47 1.56-1.46 2.73 0 1 .11 2.22.29 3.25.24 1.36.85 3.47 1.75 3.7 1.33.35 2.15-2.09 1.58-6.61-.28-2.26-1.46-3.18-2.16-3.07ZM104.78 100.1c.05 1.58.14 2.57.07 4.08-.07 1.69-.15 3.11-.5 4.11-1.63-3.77-5.63-6.14-6.79-.59.53 4.15 1.33 6.58 2.28 11.01-1.4.21-1.88.24-3.26.52-1.19.24-1.92.54-3.09.73-.33-4.17-.46-6.77-1.27-10.88-.67-3.4-1.26-5.31-1.88-8.76.86-.37 2.27-.37 3.42-.79 1.22-.45 2.26-.81 3.31-1.06 0 1.23-.02 2.24 0 3.15 1.5-4.27 5.09-7.05 7.72-1.52ZM117.53 106.55c-1.01.94-2.61 1.83-4.34 2.39.68 1.26 1.77 1.86 2.61 1.8 2.15-.17 3.34-2.85 3.55-4.31.52.27 1.11 1.15 1.55 2.41.32.93.82 2.8.91 3.57 0 0-1.81 2.4-6.19 3.22-5.71 1.07-9.14-4.96-9.24-10.53-.1-5.31 2.79-8.2 5.14-9.3 3.4-1.58 8.5-1.13 8.83 4.79.13 2.31-1.2 4.47-2.84 5.96Zm-3.53-4.81c-1 .95-1.67 3.46-1.4 5.12.75-.65 2.03-1.98 2.62-3.72.52-1.52-.41-2.17-1.22-1.4ZM147.31 107.12c-.57.26-2.42.65-2.91.76-.62.14-2.64.79-3.13.93-.94-5.58-.39-11.06-2.01-12.45-1.06-.88-1.92-.27-2.52.89.92 3.59 1.42 8.15 1.96 12.56-.61.26-2.39.46-2.92.57-.62.13-2.62.73-3.11.86-.94-5.66-.4-11.2-2.03-12.61-1.29-1.11-2.7.32-2.84 1.64-.37 3.36 1.38 7.12 2.35 11.65-1.35.32-1.86.4-3.22.8-1.14.33-1.87.7-3.06.99-.33-4.19-.46-6.82-1.24-10.93-.55-2.89-1.31-5.81-1.85-8.81.86-.42 2.24-.43 3.37-.93 1.17-.52 2.21-.93 3.29-1.24-.03.88-.05 1.64-.04 2.34.89-2.11 2.39-3.65 4.75-3.37 1.42.17 2.48 1.21 3.29 2.83.83-2.87 2.42-5.36 5.32-5.04 4.53.51 5.42 9.93 6.55 18.56ZM147.9 78.98c2.12-.54 3.74.48 4.08 2.59.34 2.11-.83 3.86-2.94 4.43-2.05.55-3.68-.47-4.02-2.61-.35-2.14.83-3.89 2.88-4.41Zm-.25 17.23c.65 4.08.94 5.97 1.29 10.02 1.14-.35 1.86-.75 3.01-1.16 1.32-.46 1.81-.58 3.18-.98-.94-4.26-1.28-6.08-1.88-10.24-.4-2.74-.84-4.75-.69-8.59-1.06.37-2.08.78-3.28 1.32-1.13.52-2.51.64-3.35 1.12.64 3.3 1.2 5.21 1.72 8.51ZM170.5 91.53c.06 5.37-3.18 8.95-7.22 10.1-5.3 1.51-8.4-3.54-8.47-8.78-.08-5.62 3.21-9.03 7.26-9.94 5.32-1.2 8.36 3.62 8.42 8.63Zm-8.11 5.35c1.3.28 2.28-2.29 2.13-5.34-.16-3.26-1.04-4.03-1.72-3.83-1.61.48-2.04 3.67-1.97 5.27.06 1.41.79 3.73 1.56 3.9ZM185.29 89.89c.16 3.11-3.44 5.86-11.87 7.57-.07-.81-.47-2.59-.59-3.27-.12-.72-.84-3.16-.89-3.7 3.36-.66 8.6.1 8.58-1.2-.03-1.6-9.25-.29-9.63-4.47-.32-3.5 3.61-6.45 12.03-7.67.04.98.37 2.54.48 3.16.12.72.71 2.73.82 3.38-3.36 1.45-8.79.51-8.32 1.92.33.99 4.39.35 7.05 1.01 1.66.47 2.24 1.39 2.34 3.28ZM178.38 40.71c-1.79-7.35-9.8-23.27-19.06-16.2-8.17 6.23-8.29 19.76-6.13 29.44 1.59 7.15 9.24 24.01 19.05 14.73 7.52-7.11 8.46-18.45 6.13-27.97Zm-6.67-.12c-.38-.16-.74-.29-1.06-.37a6.67 6.67 0 0 0-.98-.16c-1.17-.09-2.19.14-3.07.71-.88.57-1.56 1.36-2.04 2.38 2.32.14 3.48.22 5.79.37l.05 2.85-6.6-.35c-.02.14-.02.28-.02.43v.89c0 .15.01.3.04.46 2.64.12 3.96.18 6.59.31l.05 2.86c-2.35-.09-3.53-.13-5.9-.22.52 1.12 1.23 2 2.15 2.63.92.64 1.99.97 3.21 1 .57.01 1.09-.03 1.55-.13.46-.1.91-.25 1.35-.43.04 2.24.05 3.36.09 5.61-.43.18-.9.3-1.4.36-.5.07-1.02.1-1.55.1a10.187 10.187 0 0 1-6.84-2.55c-.92-.81-1.71-1.79-2.36-2.94-.65-1.15-1.15-2.44-1.48-3.84-.78-.03-1.17-.04-1.96-.07l-.05-2.98c.63.03.95.04 1.59.07-.02-.16-.03-.32-.04-.47V46.2c0-.15 0-.3.02-.43-.63-.03-.95-.05-1.59-.08l-.05-2.98c.8.05 1.19.07 1.99.12.3-1.33.77-2.54 1.4-3.62.63-1.08 1.4-1.99 2.3-2.71.9-.72 1.91-1.26 3.05-1.61 1.13-.35 2.36-.45 3.68-.32 1.05.11 2.07.38 3.05.81-.38 2.07-.57 3.12-.95 5.21Z" class="cls-1"/></g></svg>