<svg xmlns="http://www.w3.org/2000/svg" id="Capa_2" data-name="Capa 2" viewBox="0 0 143.6 91.78"><defs><style>.cls-1{fill:#f8b133}</style></defs><g id="Design"><path d="M102.46 16.8c1.51-.06 5.75 3.22 6.82 4.47 1.15 1.35 3.89 6.24 3.22 7.93-.23.58-.67.24-.9-.17-.51-.91-.64-2.89-1.21-4.1-1-2.14-3.1-4.43-5.12-5.63-.74-.44-2.91-1.21-3.2-1.49-.45-.45-.04-.98.39-.99ZM56.14 7.12c-.28 1.83-1 .67-1.82.56-3.13-.39-6.46.96-8.11 3.72-.34.56-1.12 3.64-1.74 2.05-.28-.71.26-1.6.59-2.23 2.07-3.91 6.96-5.59 11.08-4.11ZM115.27 23.09c-.14-.16-.11-3.59-.22-4.37a24.4 24.4 0 0 0-.63-2.94c-.15-.56-1.5-2.85-.35-2.86 1.38 0 2.66 8.29 2.25 9.6-.15.46-.76.89-1.05.56ZM49.78.26c-.09.24-.1.82-.18.89-.13.11-2.42-.01-3.32.26-1.49.44-2.75 2.09-3.39 2.28-1.51.47-.26-1.26.35-1.8C44.9.42 47.63-.45 49.77.26ZM3.67 22.74l66.62 14.22.15-.86-17.77-7.95c-4.96-3.24 1.89-9.76 5.28-11.51 4.13-2.14 6.51-1.6 9.93 1.41 4.06 3.58 7.6 10.46 9.13 15.62.32 1.08.41 4.95 1.71 2.98 2.98-4.48 5.03-10.21 10.36-12.77 8.18-3.93 16.41 7.88 12.69 15.02l-19.32.82 61.16 13.59-4 19.82c-.15.75-1.78-.21-2.25-.31-1.43-.33-2.91-.53-4.34-.86-1.79 5.11-3.13 14.7-6.81 18.7-2.31 2.51-6.89 0-9.88.28-9.48-1.49-19.18-4.48-28.63-5.8-.71-.1-1.39.32-1.84.19-.49-.14-1.05-.96-1.96-1.27-6.69-2.25-15.06-2.03-22.02-3.22-.82-.21-.78-1.52-2.05-1.96-4.05-1.39-9.19-1.9-13.38-3.02-.68-.12-.59.78-1.37.7-1.37-.14-1.1-1.34-1.84-1.64-2.25-.9-6.91-1.31-9.56-1.91-3.95-.89-7.86-2.03-11.79-3.01-.83-.21-5.41-1.22-5.76-1.1-.27.1-.29.94-1.28.63-.68-.22-.41-.87-.78-1.11-2.03-1.25-5.99-1.19-8.3-2.04-1.15-1.11 1.95-20.55 2.2-23.4l-7.6-1.53S0 40.96 0 40.93l3.67-18.18Zm72.46 12.92c.49-.43-1.14-4.6-1.46-5.35-1.87-4.54-7.14-13.91-12.74-13.88-3.41.02-11.16 6.02-9.78 9.73.37.99 4.24 2.57 5.4 3.12 3.45 1.63 7.03 3.06 10.58 4.45l-6.91-5.6c-4.94-4.97-1.33-6.79 3.86-3.34 4.16 2.77 7.63 7.26 11.03 10.87Zm6.91 2.63 18.1-.53c.81-.45.55-2.35.48-3.16-.42-4.84-4.15-10.54-9.54-10.47-4.78.06-9.81 7.9-11.66 11.78 2.81-1.91 8.26-8.52 11.5-8.92 2.41-.3 4.93 3.53 4.06 5.33s-10.92 4.71-12.95 5.98Zm-2.68-.54 14.11-5.38c1.48-1.16-.77-4.98-3.04-4.19-1.18.41-4.68 3.47-5.82 4.45-1.83 1.59-3.51 3.42-5.25 5.12Zm-4.71-1.25c-3.63-3.45-6.67-7.58-10.79-10.51-3.42-2.43-7.47-3.22-2.84 1.37 2.52 2.51 9.2 7.61 12.32 9.11.27.13 1.26.6 1.31.03Zm-5.91 1.6L4.71 23.73 1.34 40.42l64.91 14.96 3.49-17.29Zm1.2.24-3.55 17.6 9.25 1.87 3.55-17.6-9.25-1.87Zm10.16 1.91-4.08 18.16 61.51 13.8 4.08-18.16-61.51-13.8ZM13.94 67.16 12.6 44.95c-.36-1.47-2.43-.72-3.45-1.71L6.58 65.33l7.35 1.83Zm11.73-19.92-11.24-2.47 1.5 22.49c3.15 1.38 6.74 1.99 10.17 2.66.14-7.56.73-15.18-.43-22.68Zm18.79 27.01c-.46-7.96-2.64-15.67-4.09-23.48l-12.56-3.14c.65 7.53.54 15.09.11 22.64l16.54 3.98Zm15.44 3.42c-3.01-7.28-2.29-15.41-3.07-23.12l-14.54-3.38c1.54 7.74 3.9 15.49 3.97 23.43l13.64 3.07Zm6.12-21.09c-.76.15-6.98-2.16-7.13-1.59.57 7.32-.11 15.38 2.98 22.16l4.15-20.57Zm6.04 23.86 3.88-19.22c.02-.12-.67-2.25-.77-2.33-.08-.07-1.75-.82-1.85-.84l-6.11-1.23-4.3 21.31c.13.33.98.66 1.25.72l7.9 1.59Zm15.29 3.39 14.16 2.86-7.05-23.71c-5.8-.97-11.39-2.86-17.2-3.68 2.21 8.1 6.17 15.53 8.9 23.44.11.2 1.06 1.03 1.19 1.08Zm16.24 3.28 13.11 2.65-4.13-11.06c-.99-3.93-2.25-7.86-2.42-11.94-4.55-.98-8.98-2.51-13.64-2.94l7.08 23.3Zm20.49-17.22-12.1-2.8c1.04 8.08 3.84 15.71 7.01 23.15 3.54-.08 5.23 1.95 7.36-1.71.29-.5 2.28-4.57 2.12-4.77-.07-.09-1.02-.14-1.07-.71l-3.32-13.15Zm7.74 1.83-4.92-.99c-.13-.03-.7-.97-.77 0l2.9 10.99 2.79-9.99ZM84.22 83.2l-7.83-19.57-3.14 17.05 10.97 2.52Z" class="cls-1"/></g></svg>